<!-- Generated by IcoMoon.io -->
<svg version="1.1" xmlns="http://www.w3.org/2000/svg" width="1024" height="1024" viewBox="0 0 1024 1024">
    <title></title>
    <path style="fill:#2d6dbe;"
          fill="#000" d="M1014.64 969.040l-310.928-312.832c57.952-69.408 92.88-158.704 92.88-256.208 0-220.912-179.088-400-400-400s-400 179.088-400 400c0 220.912 179.088 400 400 400 100.368 0 192.048-37.056 262.288-98.144l310.496 312.448c12.496 12.496 32.768 12.496 45.264 0 12.48-12.496 12.48-32.752 0-45.264zM396.592 736.528c-185.856 0-336.528-150.672-336.528-336.528s150.672-336.528 336.528-336.528 336.528 150.672 336.528 336.528-150.672 336.528-336.528 336.528z"></path>
</svg>
